<?xml version="1.0" encoding="UTF-8" standalone="no"?>
<svg width="18px" height="18px" viewBox="0 0 18 18" version="1.1" xmlns="http://www.w3.org/2000/svg" xmlns:xlink="http://www.w3.org/1999/xlink">
    <!-- Generator: Sketch 39.1 (31720) - http://www.bohemiancoding.com/sketch -->
    <title>icons_header_insta</title>
    <desc>Created with Sketch.</desc>
    <defs></defs>
    <g id="Page-1" stroke="none" stroke-width="1" fill="none" fill-rule="evenodd">
        <g id="icons_header_insta">
            <rect id="Rectangle" fill="#C1C1C1" x="0" y="0" width="18" height="18" rx="2"></rect>
            <g id="1487609867_Instagram_Solid" transform="translate(4.000000, 4.000000)" fill="#FFFFFF">
                <g id="Layer_1">
                    <g id="XMLID_138_">
                        <path d="M9.71923077,1.72586873 C9.59230769,1.3976834 9.42307692,1.11969112 9.14615385,0.841698842 C8.86923077,0.563706564 8.59230769,0.393822394 8.26538462,0.266409266 C7.95,0.142857143 7.58461538,0.0579150579 7.05769231,0.0347490347 C6.52692308,0.0115830116 6.35769231,0.00386100386 5.00384615,0.00386100386 C3.65,0.00386100386 3.48076923,0.00772200772 2.95,0.0347490347 C2.41923077,0.0579150579 2.05769231,0.142857143 1.74230769,0.266409266 C1.41538462,0.393822394 1.13846154,0.563706564 0.861538462,0.841698842 C0.584615385,1.11969112 0.415384615,1.3976834 0.288461538,1.72586873 C0.165384615,2.04247104 0.0807692308,2.40926641 0.0576923077,2.93822394 C0.0346153846,3.47104247 0.0269230769,3.64092664 0.0269230769,5 C0.0269230769,6.35907336 0.0307692308,6.52895753 0.0576923077,7.06177606 C0.0807692308,7.59459459 0.165384615,7.95752896 0.288461538,8.27413127 C0.415384615,8.6023166 0.584615385,8.88030888 0.861538462,9.15830116 C1.13846154,9.43629344 1.41538462,9.60617761 1.74230769,9.73359073 C2.05769231,9.85714286 2.42307692,9.94208494 2.95,9.96525097 C3.48076923,9.98841699 3.65,9.996139 5.00384615,9.996139 C6.35769231,9.996139 6.52692308,9.99227799 7.05769231,9.96525097 C7.58846154,9.94208494 7.95,9.85714286 8.26538462,9.73359073 C8.59230769,9.60617761 8.86923077,9.43629344 9.14615385,9.15830116 C9.42307692,8.88030888 9.59230769,8.6023166 9.71923077,8.27413127 C9.84230769,7.95752896 9.92692308,7.59073359 9.95,7.06177606 C9.97307692,6.52895753 9.98076923,6.35907336 9.98076923,5 C9.98076923,3.64092664 9.97692308,3.47104247 9.95,2.93822394 C9.92692308,2.40540541 9.84230769,2.04247104 9.71923077,1.72586873 L9.71923077,1.72586873 Z M9.05384615,7.01930502 C9.03076923,7.50579151 8.95,7.77220077 8.88076923,7.94594595 C8.79230769,8.17760618 8.68076923,8.34749035 8.50769231,8.52123552 C8.33461538,8.69498069 8.16923077,8.8030888 7.93461538,8.8957529 C7.75769231,8.96525097 7.49615385,9.04633205 7.01153846,9.06949807 C6.48461538,9.09266409 6.33076923,9.1003861 5,9.1003861 C3.66923077,9.1003861 3.51153846,9.0965251 2.98846154,9.06949807 C2.50384615,9.04633205 2.23846154,8.96525097 2.06538462,8.8957529 C1.83461538,8.80694981 1.66538462,8.69498069 1.49230769,8.52123552 C1.31923077,8.34749035 1.21153846,8.18146718 1.11923077,7.94594595 C1.05,7.76833977 0.969230769,7.50579151 0.946153846,7.01930502 C0.923076923,6.49034749 0.915384615,6.33204633 0.915384615,5 C0.915384615,3.66795367 0.919230769,3.50579151 0.946153846,2.98069498 C0.969230769,2.49420849 1.05,2.22779923 1.11923077,2.05405405 C1.20769231,1.82239382 1.31923077,1.65250965 1.49230769,1.47876448 C1.66538462,1.30501931 1.83076923,1.1969112 2.06538462,1.1042471 C2.24230769,1.03474903 2.50384615,0.953667954 2.98846154,0.930501931 C3.51538462,0.907335907 3.67307692,0.8996139 5,0.8996139 C6.32692308,0.8996139 6.48846154,0.903474903 7.01153846,0.930501931 C7.49615385,0.953667954 7.76153846,1.03474903 7.93461538,1.1042471 C8.16538462,1.19305019 8.33461538,1.30501931 8.50769231,1.47876448 C8.68076923,1.65250965 8.78846154,1.81853282 8.88076923,2.05405405 C8.95,2.23166023 9.03076923,2.49420849 9.05384615,2.98069498 C9.07692308,3.50965251 9.08461538,3.66795367 9.08461538,5 C9.08461538,6.33204633 9.07692308,6.49420849 9.05384615,7.01930502 L9.05384615,7.01930502 Z" id="XMLID_142_"></path>
                        <path d="M5,2.43243243 C3.58846154,2.43243243 2.44230769,3.58301158 2.44230769,5 C2.44230769,6.41698842 3.58846154,7.56756757 5,7.56756757 C6.41153846,7.56756757 7.55769231,6.41698842 7.55769231,5 C7.55769231,3.58301158 6.41153846,2.43243243 5,2.43243243 L5,2.43243243 Z M5,6.66795367 C4.08461538,6.66795367 3.33846154,5.92277992 3.33846154,5 C3.33846154,4.08108108 4.08076923,3.33204633 5,3.33204633 C5.91923077,3.33204633 6.66153846,4.07722008 6.66153846,5 C6.66153846,5.91891892 5.91538462,6.66795367 5,6.66795367 L5,6.66795367 Z" id="XMLID_145_"></path>
                        <ellipse id="XMLID_143_" cx="7.65769231" cy="2.33204633" rx="0.596153846" ry="0.598455598"></ellipse>
                    </g>
                </g>
            </g>
        </g>
    </g>
</svg>