<?xml version="1.0" encoding="UTF-8" standalone="no"?>
<svg width="18px" height="18px" viewBox="0 0 18 18" version="1.1" xmlns="http://www.w3.org/2000/svg" xmlns:xlink="http://www.w3.org/1999/xlink">
    <!-- Generator: Sketch 39.1 (31720) - http://www.bohemiancoding.com/sketch -->
    <title>icons_vk</title>
    <desc>Created with Sketch.</desc>
    <defs></defs>
    <g id="Page-1" stroke="none" stroke-width="1" fill="none" fill-rule="evenodd">
        <g id="icons_vk">
            <rect id="Rectangle" fill="#433C3C" x="0" y="0" width="18" height="18" rx="2"></rect>
            <g id="1487609895_vkontakte" transform="translate(4.000000, 6.000000)" fill="#FFFFFF">
                <g id="Vkontakte">
                    <path d="M5.80645161,5.05263158 C5.80645161,4.73684211 6.12903226,4.42105263 6.4516129,4.42105263 C6.77419355,4.42105263 7.32741935,4.96263158 7.74193548,5.36842105 C8.06451613,5.68421053 8.06451613,5.68421053 8.38709677,5.68421053 L9.35483871,5.68421053 C9.35483871,5.68421053 10,5.66021053 10,5.05263158 C10,4.85526316 9.77903226,4.52052632 9.03225806,3.78947368 C8.38709677,3.15789474 8.05612903,3.48410526 9.03225806,2.21052632 C9.62677419,1.43494737 10.0593548,0.732315789 9.98516129,0.529578947 C9.91419355,0.336 8.26064516,0.0277894737 8.06451613,0.315789474 C7.41935484,1.26315789 7.30096774,1.49526316 7.09677419,1.89473684 C6.77419355,2.52631579 6.74225806,2.84210526 6.4516129,2.84210526 C6.1583871,2.84210526 6.12903226,2.22915789 6.12903226,1.89473684 C6.12903226,0.850736842 6.28354839,0.112421053 5.80645161,0 L4.83870968,0 C4.31935484,0 3.87096774,0.315789474 3.87096774,0.315789474 C3.87096774,0.315789474 3.47064516,0.621473684 3.5483871,0.631578947 C3.64451613,0.644210526 4.19354839,0.500842105 4.19354839,0.947368421 L4.19354839,1.57894737 C4.19354839,1.57894737 4.19645161,2.84210526 3.87096774,2.84210526 C3.5483871,2.84210526 2.90322581,1.57894737 2.25806452,0.631578947 C2.00483871,0.259894737 1.93548387,0.315789474 1.61290323,0.315789474 C1.26709677,0.315789474 0.968064516,0.329052632 0.64516129,0.329052632 C0.322580645,0.329052632 0.281290323,0.530210526 0.322580645,0.631578947 C0.967741935,2.21052632 1.43129032,3.20210526 2.65709677,4.45136842 C3.78129032,5.59736842 4.53225806,5.65831579 5.16129032,5.68421053 C5.32258065,5.69084211 5.16129032,5.68421053 5.48387097,5.68421053 C5.80645161,5.68421053 5.80645161,5.22915789 5.80645161,5.05263158 Z" id="VK"></path>
                </g>
            </g>
        </g>
    </g>
</svg>