<?xml version="1.0" encoding="UTF-8" standalone="no"?>
<svg width="18px" height="18px" viewBox="0 0 18 18" version="1.1" xmlns="http://www.w3.org/2000/svg" xmlns:xlink="http://www.w3.org/1999/xlink">
    <!-- Generator: Sketch 39.1 (31720) - http://www.bohemiancoding.com/sketch -->
    <title>icons_whatsapp</title>
    <desc>Created with Sketch.</desc>
    <defs></defs>
    <g id="Page-1" stroke="none" stroke-width="1" fill="none" fill-rule="evenodd">
        <g id="icons_whatsapp">
            <rect id="Rectangle" fill="#433C3C" x="0" y="0" width="18" height="18" rx="2"></rect>
            <path d="M9.09088911,13.7424444 C8.23011126,13.7424444 7.42144445,13.5224444 6.71788895,13.1363333 L4,14 L4.88599996,11.3864445 C4.43911111,10.6523333 4.18166658,9.79144437 4.18166658,8.87122221 C4.18166658,6.18088874 6.37955553,4 9.09100015,4 C11.8021114,4 14,6.18088874 14,8.87122221 C14,11.5615557 11.8022224,13.7424444 9.09088911,13.7424444 L9.09088911,13.7424444 Z M9.09088911,4.77577771 C6.81488882,4.77577771 4.96355549,6.61300002 4.96355549,8.87122221 C4.96355549,9.76733328 5.2556667,10.5972223 5.7496667,11.2724444 L5.23411107,12.7933334 L6.82011108,12.2892223 C7.47188896,12.7171112 8.25255552,12.9666667 9.09088911,12.9666667 C11.3665557,12.9666667 13.2182224,11.1295554 13.2182224,8.87133325 C13.2182224,6.61311106 11.3665557,4.77577771 9.09088911,4.77577771 L9.09088911,4.77577771 L9.09088911,4.77577771 Z M11.5697779,9.99311108 C11.5395556,9.94344446 11.4593335,9.91344455 11.3392223,9.85377786 C11.2187779,9.79411117 10.6270001,9.50511124 10.5168889,9.46544439 C10.4064446,9.4256668 10.3261112,9.40555562 10.2460002,9.52511108 C10.1658889,9.64466654 9.93522226,9.91344455 9.86488895,9.99311108 C9.79466668,10.072889 9.72455576,10.082889 9.6042224,10.023111 C9.48400008,9.9634443 9.09622242,9.83733347 8.63644462,9.43055564 C8.2787779,9.11411096 8.03722225,8.72344441 7.96711132,8.6037779 C7.89688905,8.48433318 7.95966672,8.41977765 8.01988892,8.36033334 C8.07400021,8.30677785 8.14022227,8.22088878 8.20044447,8.15122232 C8.26066667,8.08144452 8.28066681,8.0317779 8.32066679,7.95200003 C8.36088885,7.8723332 8.34077797,7.80266674 8.31066672,7.74277766 C8.28055577,7.68311097 8.03977771,7.09555551 7.93955554,6.85644428 C7.83933336,6.61755543 7.73922223,6.65733333 7.66888891,6.65733333 C7.59866665,6.65733333 7.51844461,6.64733326 7.43822227,6.64733326 C7.35799993,6.64733326 7.22755576,6.67722213 7.11722217,6.79666655 C7.00699993,6.91622231 6.69622229,7.2051112 6.69622229,7.79255563 C6.69622229,8.3801111 7.12722224,8.94777777 7.18755549,9.02733325 C7.24766664,9.10688874 8.01977788,10.3517778 9.24299994,10.8298889 C10.4666668,11.307889 10.4666668,11.1484446 10.6873334,11.1285555 C10.9076668,11.1086667 11.399,10.8397779 11.4995556,10.5610001 C11.5996667,10.282 11.5996667,10.0428887 11.5697779,9.99311108 L11.5697779,9.99311108 L11.5697779,9.99311108 Z" id="whatsapp" fill="#FFFFFF"></path>
        </g>
    </g>
</svg>