<?xml version="1.0" encoding="UTF-8" standalone="no"?>
<svg width="18px" height="18px" viewBox="0 0 18 18" version="1.1" xmlns="http://www.w3.org/2000/svg" xmlns:xlink="http://www.w3.org/1999/xlink">
    <!-- Generator: Sketch 39.1 (31720) - http://www.bohemiancoding.com/sketch -->
    <title>icons_viber</title>
    <desc>Created with Sketch.</desc>
    <defs></defs>
    <g id="Page-1" stroke="none" stroke-width="1" fill="none" fill-rule="evenodd">
        <g id="icons_viber">
            <rect id="Rectangle" fill="#433C3C" x="0" y="0" width="18" height="18" rx="2"></rect>
            <g id="1487611699_social-02" transform="translate(4.000000, 4.000000)" fill="#FFFFFF">
                <g id="Layer_5">
                    <path d="M4.90074074,0.242962963 C4.92759259,0.128333333 5.03185185,0.077037037 5.05018519,0.067962963 C5.09814815,0.0442592593 5.14092593,0.0407407407 5.22685185,0.0333333333 C5.22685185,0.0333333333 5.30074074,0.0285185185 5.36555556,0.0303703704 C7.56888889,0.0894444444 9.47185185,1.6537037 9.74592593,4.02333333 C9.76425926,4.18166667 9.79555556,4.36888889 9.80462963,4.75444444 C9.80648148,4.83166667 9.80777778,4.97185185 9.71296296,5.06222222 C9.67018519,5.10296296 9.62111111,5.12111111 9.58685185,5.13 C9.53925926,5.11944444 9.46425926,5.09537037 9.40666667,5.03222222 C9.3287037,4.94666667 9.32444444,4.83537037 9.32240741,4.79722222 C9.29925926,4.36703704 9.23833333,3.93722222 9.13944444,3.51777778 C8.77314815,1.96277778 7.36148148,0.735555556 5.7712963,0.557777778 C5.58648148,0.537037037 5.40111111,0.516666667 5.21537037,0.508148148 C5.08944444,0.502407407 4.96425926,0.479074074 4.915,0.39462963 C4.87925926,0.332592593 4.89685185,0.259814815 4.90074074,0.242962963 L4.90074074,0.242962963 Z M5.76611111,1.70722222 C5.76203704,1.70648148 5.67333333,1.70592593 5.56111111,1.67648148 C5.47277778,1.65333333 5.40388889,1.63425926 5.35148148,1.5737037 C5.30185185,1.5162963 5.28833333,1.44592593 5.2862963,1.39333333 C5.29759259,1.35277778 5.32148148,1.29185185 5.37648148,1.24740741 C5.45407407,1.18462963 5.55203704,1.18833333 5.59814815,1.19055556 C6.89685185,1.25537037 7.66592593,2.00740741 7.66592593,2.00740741 C7.73259259,2.07259259 8.01166667,2.35148148 8.25444444,2.80388889 C8.54722222,3.34944444 8.63166667,3.85740741 8.65888889,4.16851852 C8.66555556,4.23944444 8.6637037,4.34462963 8.61481481,4.45277778 C8.59462963,4.49722222 8.57185185,4.5462963 8.51833333,4.585 C8.45333333,4.63203704 8.38296296,4.63555556 8.35277778,4.63518519 C8.31925926,4.62259259 8.27740741,4.60111111 8.24055556,4.56296296 C8.19296296,4.5137037 8.17111111,4.46 8.1687037,4.43777778 C8.10018519,3.84166667 8.00685185,3.25944444 7.64018519,2.75592593 C7.17462963,2.11703704 6.51537037,1.83388889 5.76611111,1.70722222 L5.76611111,1.70722222 Z M7.46444444,3.97240741 C7.45185185,4.14518519 7.38166667,4.20888889 7.36407407,4.22388889 C7.31166667,4.26814815 7.25111111,4.28037037 7.21444444,4.28444444 C7.17203704,4.27611111 7.11185185,4.25722222 7.06296296,4.20888889 C6.99055556,4.13722222 6.9812963,4.0387037 6.97759259,4.00648148 C6.96037037,3.85703704 6.85314815,3.37888889 6.60851852,3.15833333 C6.45555556,3.02037037 6.24425926,2.94759259 5.93518519,2.90277778 C5.81111111,2.88481481 5.69074074,2.85962963 5.64722222,2.77740741 C5.61407407,2.71462963 5.63666667,2.6437037 5.64351852,2.6212963 C5.69425926,2.45759259 5.89277778,2.41037037 5.90851852,2.40703704 C6.04037037,2.42555556 6.88314815,2.55537037 7.26851852,3.18203704 C7.47703704,3.52111111 7.47148148,3.87592593 7.46444444,3.97240741 L7.46444444,3.97240741 Z M9.78537037,8.61425926 C9.46925926,8.99925926 9.16388889,9.40462963 8.78944444,9.72685185 C8.46796296,10.0033333 8.04759259,10.0366667 7.62925926,9.86574074 C4.19240741,8.46259259 1.72740741,6.07703704 0.305740741,2.63407407 C0.27,2.54777778 0.241111111,2.45851852 0.210740741,2.37018519 C-0.0553703704,1.59740741 0.0248148148,1.29722222 0.658888889,0.777407407 C0.866111111,0.607407407 1.08796296,0.453518519 1.31296296,0.307407407 C1.69111111,0.0618518519 2.10703704,0.0648148148 2.39296296,0.409259259 C2.86814815,0.982037037 3.32148148,1.5812963 3.71148148,2.21407407 C4.00259259,2.68648148 3.89851852,2.95388889 3.4712963,3.30962963 C3.37259259,3.39185185 3.26666667,3.46555556 3.16777778,3.54759259 C2.92055556,3.75296296 2.81611111,3.99777778 2.92518519,4.32259259 C3.40314815,5.74666667 4.40055556,6.64703704 5.79092593,7.12537037 C5.95259259,7.18092593 6.20518519,7.05611111 6.38203704,6.95574074 C6.51407407,6.88074074 6.59148148,6.71 6.6937037,6.58222222 C6.96981481,6.23685185 7.41648148,6.09074074 7.78518519,6.32462963 C8.44425926,6.74277778 9.07574074,7.20722222 9.69518519,7.68296296 C9.82796296,7.785 9.86018519,8.01777778 9.93185185,8.175 C9.87388889,8.35851852 9.86592593,8.51611111 9.78537037,8.61425926 L9.78537037,8.61425926 Z" id="Shape"></path>
                </g>
            </g>
        </g>
    </g>
</svg>