<?xml version="1.0" encoding="UTF-8" standalone="no"?>
<svg width="36px" height="32px" viewBox="0 0 36 32" version="1.1" xmlns="http://www.w3.org/2000/svg" xmlns:xlink="http://www.w3.org/1999/xlink">
    <!-- Generator: Sketch 39.1 (31720) - http://www.bohemiancoding.com/sketch -->
    <title>icons_logo</title>
    <desc>Created with Sketch.</desc>
    <defs></defs>
    <g id="Page-1" stroke="none" stroke-width="1" fill="none" fill-rule="evenodd">
        <g id="icons_logo" fill="#7F73D2">
            <path d="M7.76088166,8.1015625 L7.33900666,8.08984375 C7.18275588,8.08984375 7.06752266,8.12304654 6.99330354,8.18945312 C6.91908442,8.25585971 6.88197541,8.38671777 6.88197541,8.58203125 C6.88197541,10.1445391 6.97963069,12.4843594 7.17494416,15.6015625 C7.37025764,18.7187656 7.46791291,21.0585859 7.46791291,22.6210938 L7.46791291,23.546875 C7.63197623,23.5234374 7.79603709,23.5117188 7.96010041,23.5117188 C8.62416623,23.5117188 8.95619416,23.7929659 8.95619416,24.3554688 L8.95619416,24.4960938 L8.35853791,24.90625 L6.72963166,24.9648438 C5.34681225,24.9648438 4.65541291,24.7265649 4.65541291,24.25 C4.65541291,23.8671856 4.89759799,23.6757812 5.38197541,23.6757812 L5.88588166,23.7109375 C6.12025783,23.7109375 6.23744416,23.5234394 6.23744416,23.1484375 C6.23744416,21.9140563 6.16322615,20.0644654 6.01478791,17.5996094 C5.86634967,15.1347533 5.79213166,13.2851624 5.79213166,12.0507812 L5.83900666,9.6015625 C5.83900666,9.08593492 5.81947561,8.64062687 5.78041291,8.265625 C5.56947436,8.33593785 5.38197623,8.37109375 5.21791291,8.37109375 C4.84291104,8.37109375 4.65541291,8.17968941 4.65541291,7.796875 C4.65541291,7.60156152 4.77650545,7.43164135 5.01869416,7.28710938 C5.26088287,7.1425774 5.56166112,7.03906281 5.92103791,6.9765625 C6.59291627,6.85937441 7.09095817,6.80078125 7.41517854,6.80078125 C7.73939891,6.80078125 7.97181846,6.86523373 8.11244416,6.99414062 C8.25306987,7.12304752 8.32338166,7.27538975 8.32338166,7.45117188 C8.32338166,7.626954 8.27064781,7.77929623 8.16517854,7.90820312 C8.05970926,8.03711002 7.92494498,8.1015625 7.76088166,8.1015625 L7.76088166,8.1015625 Z M11.9243861,24.296875 L12.0181361,10.2226562 L12.0181361,7.26953125 C12.0181361,7.08203031 12.0571983,6.94921914 12.1353236,6.87109375 C12.213449,6.79296836 12.4185251,6.75390625 12.750558,6.75390625 C13.0825909,6.75390625 13.4185251,6.83398357 13.7583705,6.99414062 C14.098216,7.15429768 14.3853225,7.36718617 14.6196986,7.6328125 C14.8462623,7.91406391 15.0415728,8.22656078 15.2056361,8.5703125 C15.5181377,9.23437832 15.6743861,9.95702734 15.6743861,10.7382812 C15.6743861,11.5195352 15.4790756,12.4140575 15.0884486,13.421875 C15.0415734,13.5312505 14.9478243,13.761717 14.8071986,14.1132812 C14.6665729,14.4648455 14.5845425,14.6718747 14.5611049,14.734375 C14.5689174,15.9218809 14.8696957,17.4648343 15.4634486,19.3632812 C15.6665747,20.0039095 15.9556343,20.8808538 16.3306361,21.9941406 C16.705638,23.1074274 16.9400107,23.8124985 17.0337611,24.109375 L17.0337611,24.1679688 C17.0337611,24.7070339 16.9712618,25.0214839 16.8462611,25.1113281 C16.7212605,25.2011723 16.5884493,25.2460938 16.4478236,25.2460938 C16.1509472,25.2460938 15.8618875,25.0312521 15.5806361,24.6015625 L15.5806361,24.5195312 C15.5025108,23.066399 15.0025158,20.8672022 14.0806361,17.921875 C13.658759,16.5781183 13.3657932,15.5820345 13.2017299,14.9335938 L13.2017299,24.390625 C13.2017299,24.6328137 13.1587616,24.8203118 13.0728236,24.953125 C12.9868857,25.0859382 12.8306373,25.1523438 12.6040736,25.1523438 C12.37751,25.1523438 12.2075898,25.0878913 12.094308,24.9589844 C11.9810262,24.8300775 11.9243861,24.6718759 11.9243861,24.484375 L11.9243861,24.296875 Z M13.2486049,7.85546875 L13.1196986,12.7539062 C13.1196986,13.2460962 13.1275111,13.61328 13.1431361,13.8554688 C13.416575,13.597655 13.6861036,13.2890643 13.9517299,12.9296875 L14.3267299,10.8554688 C14.3501675,10.7460932 14.3618861,10.6210945 14.3618861,10.4804688 C14.3618861,10.0976543 14.2837619,9.63281523 14.1275111,9.0859375 C13.90876,8.33593375 13.6157942,7.9257816 13.2486049,7.85546875 L13.2486049,7.85546875 Z M22.6738281,8.1015625 L22.2519531,8.08984375 C22.0957023,8.08984375 21.9804691,8.12304654 21.90625,8.18945312 C21.8320309,8.25585971 21.7949219,8.38671777 21.7949219,8.58203125 C21.7949219,10.1445391 21.8925771,12.4843594 22.0878906,15.6015625 C22.2832041,18.7187656 22.3808594,21.0585859 22.3808594,22.6210938 L22.3808594,23.546875 C22.5449227,23.5234374 22.7089836,23.5117188 22.8730469,23.5117188 C23.5371127,23.5117188 23.8691406,23.7929659 23.8691406,24.3554688 L23.8691406,24.4960938 L23.2714844,24.90625 L21.6425781,24.9648438 C20.2597587,24.9648438 19.5683594,24.7265649 19.5683594,24.25 C19.5683594,23.8671856 19.8105445,23.6757812 20.2949219,23.6757812 L20.7988281,23.7109375 C21.0332043,23.7109375 21.1503906,23.5234394 21.1503906,23.1484375 C21.1503906,21.9140563 21.0761726,20.0644654 20.9277344,17.5996094 C20.7792961,15.1347533 20.7050781,13.2851624 20.7050781,12.0507812 L20.7519531,9.6015625 C20.7519531,9.08593492 20.7324221,8.64062687 20.6933594,8.265625 C20.4824208,8.33593785 20.2949227,8.37109375 20.1308594,8.37109375 C19.7558575,8.37109375 19.5683594,8.17968941 19.5683594,7.796875 C19.5683594,7.60156152 19.6894519,7.43164135 19.9316406,7.28710938 C20.1738293,7.1425774 20.4746076,7.03906281 20.8339844,6.9765625 C21.5058627,6.85937441 22.0039046,6.80078125 22.328125,6.80078125 C22.6523454,6.80078125 22.8847649,6.86523373 23.0253906,6.99414062 C23.1660163,7.12304752 23.2363281,7.27538975 23.2363281,7.45117188 C23.2363281,7.626954 23.1835943,7.77929623 23.078125,7.90820312 C22.9726557,8.03711002 22.8378914,8.1015625 22.6738281,8.1015625 L22.6738281,8.1015625 Z M26.3685826,24.71875 C26.3685826,24.2890604 26.5482683,24.0742188 26.9076451,24.0742188 C27.0873335,24.0742188 27.3236593,24.134765 27.6166295,24.2558594 C27.9095997,24.3769537 28.1635034,24.4375 28.3783482,24.4375 C28.5931931,24.4375 28.8256126,24.3007826 29.0756139,24.0273438 C29.3256151,23.7539049 29.5209257,23.4140645 29.6615514,23.0078125 C29.9506153,22.1796834 30.0951451,21.431644 30.0951451,20.7636719 C30.0951451,20.0956998 29.9779588,19.3789101 29.7435826,18.6132812 C29.5092064,17.8476524 29.224053,17.1289096 28.8881139,16.4570312 C28.5521747,15.7851529 28.2123343,15.1132846 27.8685826,14.4414062 C27.0560785,12.8398357 26.6537388,11.3789129 26.6615514,10.0585938 C26.6537388,8.8085875 27.0482661,7.82812855 27.8451451,7.1171875 C28.2670222,6.74218563 28.763111,6.5546875 29.3334264,6.5546875 C29.6224903,6.5546875 29.9037375,6.63476482 30.1771764,6.79492188 C30.4506152,6.95507893 30.6420196,7.16406121 30.7513951,7.421875 L30.3412389,7.9375 C29.9427994,7.9375 29.6303025,7.85937578 29.4037389,7.703125 C29.1068624,7.73437516 28.8490525,7.87499875 28.6303014,8.125 C28.2318619,8.5859398 28.0326451,9.1542935 28.0326451,9.83007812 C28.0326451,10.5058628 28.1185817,11.1640593 28.2904576,11.8046875 C28.4623335,12.4453157 28.6771751,13.0195287 28.9349889,13.5273438 C29.1928026,14.0351588 29.4701436,14.5859345 29.7670201,15.1796875 C30.0717091,15.7734405 30.3529563,16.3437473 30.6107701,16.890625 C31.2123356,18.1562563 31.5131139,19.5234302 31.5131139,20.9921875 C31.5209264,22.0234427 31.2592103,23.0156202 30.7279576,23.96875 C30.4779564,24.4218773 30.1342098,24.7949204 29.6967076,25.0878906 C29.2592054,25.3808608 28.7709291,25.5273438 28.2318639,25.5273438 C27.653736,25.5273438 27.1986624,25.4414071 26.8666295,25.2695312 C26.5345966,25.0976554 26.3685826,24.9140635 26.3685826,24.71875 L26.3685826,24.71875 Z" id="IRIS"></path>
        </g>
    </g>
</svg>